{
    "asset" : {
        "generator" : "Khronos glTF Blender I/O v1.2.75",
        "version" : "2.0"
    },
    "extensionsUsed" : [
        "KHR_texture_transform"
    ],
    "extensionsRequired" : [
        "KHR_texture_transform"
    ],
    "scene" : 0,
    "scenes" : [
        {
            "name" : "Scene",
            "nodes" : [
                5
            ]
        }
    ],
    "nodes" : [
        {
            "mesh" : 0,
            "name" : "node17.001",
            "rotation" : [
                0,
                -1,
                0,
                -1.1165949445057777e-06
            ],
            "scale" : [
                5.819000244140625,
                5.819000244140625,
                5.819000244140625
            ],
            "translation" : [
                -1300,
                -276.0000305175781,
                570.0001220703125
            ]
        },
        {
            "mesh" : 1,
            "name" : "node17.004",
            "rotation" : [
                0,
                -1,
                0,
                -1.1165949445057777e-06
            ],
            "scale" : [
                5.819000244140625,
                5.819000244140625,
                5.819000244140625
            ],
            "translation" : [
                -1309.531005859375,
                -30.380966186523438,
                201.32980346679688
            ]
        },
        {
            "mesh" : 2,
            "name" : "node6.002",
            "rotation" : [
                0,
                -1,
                0,
                -1.1165949445057777e-06
            ],
            "scale" : [
                5.819000244140625,
                5.819000244140625,
                5.819000244140625
            ],
            "translation" : [
                -1300,
                -276.0000305175781,
                570.0001220703125
            ]
        },
        {
            "mesh" : 3,
            "name" : "node9.002",
            "rotation" : [
                0,
                -1,
                0,
                -1.1165949445057777e-06
            ],
            "scale" : [
                5.819000244140625,
                5.819000244140625,
                5.819000244140625
            ],
            "translation" : [
                -1092.5125732421875,
                -30.473785400390625,
                214.41070556640625
            ]
        },
        {
            "children" : [
                0,
                1,
                2,
                3
            ],
            "name" : "node1",
            "rotation" : [
                0,
                -1,
                0,
                -1.6292068494294654e-07
            ]
        },
        {
            "children" : [
                4
            ],
            "name" : "node0",
            "translation" : [
                -980,
                30,
                330
            ]
        }
    ],
    "materials" : [
        {
            "doubleSided" : true,
            "emissiveFactor" : [
                0,
                0,
                0
            ],
            "name" : "Material-path_2.002",
            "normalTexture" : {
                "extensions" : {
                    "KHR_texture_transform" : {
                        "offset" : [
                            0,
                            -99
                        ],
                        "scale" : [
                            100,
                            100
                        ]
                    }
                },
                "index" : 0,
                "texCoord" : 0
            },
            "pbrMetallicRoughness" : {
                "baseColorTexture" : {
                    "extensions" : {
                        "KHR_texture_transform" : {
                            "offset" : [
                                0,
                                -99
                            ],
                            "scale" : [
                                100,
                                100
                            ]
                        }
                    },
                    "index" : 1,
                    "texCoord" : 0
                },
                "metallicFactor" : 0,
                "roughnessFactor" : 0.5
            }
        },
        {
            "doubleSided" : true,
            "emissiveFactor" : [
                0,
                0,
                0
            ],
            "name" : "Material-path_3.002",
            "normalTexture" : {
                "extensions" : {
                    "KHR_texture_transform" : {
                        "offset" : [
                            0,
                            -99
                        ],
                        "scale" : [
                            100,
                            100
                        ]
                    }
                },
                "index" : 2,
                "texCoord" : 0
            },
            "pbrMetallicRoughness" : {
                "baseColorTexture" : {
                    "extensions" : {
                        "KHR_texture_transform" : {
                            "offset" : [
                                0,
                                -99
                            ],
                            "scale" : [
                                100,
                                100
                            ]
                        }
                    },
                    "index" : 3,
                    "texCoord" : 0
                },
                "metallicFactor" : 0,
                "metallicRoughnessTexture" : {
                    "extensions" : {
                        "KHR_texture_transform" : {
                            "offset" : [
                                0,
                                -99
                            ],
                            "scale" : [
                                100,
                                100
                            ]
                        }
                    },
                    "index" : 4,
                    "texCoord" : 0
                }
            }
        }
    ],
    "meshes" : [
        {
            "name" : "node17.001",
            "primitives" : [
                {
                    "attributes" : {
                        "POSITION" : 0,
                        "NORMAL" : 1,
                        "TEXCOORD_0" : 2
                    },
                    "indices" : 3,
                    "material" : 0
                }
            ]
        },
        {
            "name" : "node17.004",
            "primitives" : [
                {
                    "attributes" : {
                        "POSITION" : 4,
                        "NORMAL" : 5,
                        "TEXCOORD_0" : 6
                    },
                    "indices" : 7,
                    "material" : 1
                }
            ]
        },
        {
            "name" : "node6.003",
            "primitives" : [
                {
                    "attributes" : {
                        "POSITION" : 8,
                        "NORMAL" : 9,
                        "TEXCOORD_0" : 10
                    },
                    "indices" : 11,
                    "material" : 0
                }
            ]
        },
        {
            "name" : "node9.003",
            "primitives" : [
                {
                    "attributes" : {
                        "POSITION" : 12,
                        "NORMAL" : 13,
                        "TEXCOORD_0" : 14
                    },
                    "indices" : 15,
                    "material" : 1
                }
            ]
        }
    ],
    "textures" : [
        {
            "source" : 0
        },
        {
            "source" : 1
        },
        {
            "source" : 2
        },
        {
            "source" : 3
        },
        {
            "source" : 4
        }
    ],
    "images" : [
        {
            "bufferView" : 4,
            "mimeType" : "image/jpeg",
            "name" : "93-vicentina-stone-floor-60x120-normal"
        },
        {
            "bufferView" : 5,
            "mimeType" : "image/jpeg",
            "name" : "93_Vicentina stone floor 60x120 pbr texture-seamless-color"
        },
        {
            "bufferView" : 10,
            "mimeType" : "image/jpeg",
            "name" : "stone_tiles_02_nor_gl_1k"
        },
        {
            "bufferView" : 11,
            "mimeType" : "image/jpeg",
            "name" : "stone_tiles_02_diff_1kcopy"
        },
        {
            "bufferView" : 12,
            "mimeType" : "image/png",
            "name" : "stone_tiles_02_rough_1k"
        }
    ],
    "accessors" : [
        {
            "bufferView" : 0,
            "componentType" : 5126,
            "count" : 7,
            "max" : [
                9.252887725830078,
                42.224266052246094,
                100.96516418457031
            ],
            "min" : [
                -8.299453735351562,
                42.224266052246094,
                87.68458557128906
            ],
            "type" : "VEC3"
        },
        {
            "bufferView" : 1,
            "componentType" : 5126,
            "count" : 7,
            "type" : "VEC3"
        },
        {
            "bufferView" : 2,
            "componentType" : 5126,
            "count" : 7,
            "type" : "VEC2"
        },
        {
            "bufferView" : 3,
            "componentType" : 5123,
            "count" : 15,
            "type" : "SCALAR"
        },
        {
            "bufferView" : 6,
            "componentType" : 5126,
            "count" : 272,
            "max" : [
                34.04087448120117,
                0.07564926147460938,
                29.517436981201172
            ],
            "min" : [
                -25.437936782836914,
                -0.383148193359375,
                -17.06978988647461
            ],
            "type" : "VEC3"
        },
        {
            "bufferView" : 7,
            "componentType" : 5126,
            "count" : 272,
            "type" : "VEC3"
        },
        {
            "bufferView" : 8,
            "componentType" : 5126,
            "count" : 272,
            "type" : "VEC2"
        },
        {
            "bufferView" : 9,
            "componentType" : 5123,
            "count" : 1119,
            "type" : "SCALAR"
        },
        {
            "bufferView" : 13,
            "componentType" : 5126,
            "count" : 328,
            "max" : [
                11.361312866210938,
                42.27356719970703,
                118.95074462890625
            ],
            "min" : [
                -51.57905578613281,
                42.22395706176758,
                84.9852066040039
            ],
            "type" : "VEC3"
        },
        {
            "bufferView" : 14,
            "componentType" : 5126,
            "count" : 328,
            "type" : "VEC3"
        },
        {
            "bufferView" : 15,
            "componentType" : 5126,
            "count" : 328,
            "type" : "VEC2"
        },
        {
            "bufferView" : 16,
            "componentType" : 5123,
            "count" : 1230,
            "type" : "SCALAR"
        },
        {
            "bufferView" : 17,
            "componentType" : 5126,
            "count" : 890,
            "max" : [
                18.72901153564453,
                0.27803802490234375,
                24.781200408935547
            ],
            "min" : [
                -16.565135955810547,
                -0.4720954895019531,
                -16.08911895751953
            ],
            "type" : "VEC3"
        },
        {
            "bufferView" : 18,
            "componentType" : 5126,
            "count" : 890,
            "type" : "VEC3"
        },
        {
            "bufferView" : 19,
            "componentType" : 5126,
            "count" : 890,
            "type" : "VEC2"
        },
        {
            "bufferView" : 20,
            "componentType" : 5123,
            "count" : 3135,
            "type" : "SCALAR"
        }
    ],
    "bufferViews" : [
        {
            "buffer" : 0,
            "byteLength" : 84,
            "byteOffset" : 0
        },
        {
            "buffer" : 0,
            "byteLength" : 84,
            "byteOffset" : 84
        },
        {
            "buffer" : 0,
            "byteLength" : 56,
            "byteOffset" : 168
        },
        {
            "buffer" : 0,
            "byteLength" : 30,
            "byteOffset" : 224
        },
        {
            "buffer" : 0,
            "byteLength" : 8975,
            "byteOffset" : 256
        },
        {
            "buffer" : 0,
            "byteLength" : 843823,
            "byteOffset" : 9232
        },
        {
            "buffer" : 0,
            "byteLength" : 3264,
            "byteOffset" : 853056
        },
        {
            "buffer" : 0,
            "byteLength" : 3264,
            "byteOffset" : 856320
        },
        {
            "buffer" : 0,
            "byteLength" : 2176,
            "byteOffset" : 859584
        },
        {
            "buffer" : 0,
            "byteLength" : 2238,
            "byteOffset" : 861760
        },
        {
            "buffer" : 0,
            "byteLength" : 873564,
            "byteOffset" : 864000
        },
        {
            "buffer" : 0,
            "byteLength" : 431662,
            "byteOffset" : 1737564
        },
        {
            "buffer" : 0,
            "byteLength" : 897187,
            "byteOffset" : 2169228
        },
        {
            "buffer" : 0,
            "byteLength" : 3936,
            "byteOffset" : 3066416
        },
        {
            "buffer" : 0,
            "byteLength" : 3936,
            "byteOffset" : 3070352
        },
        {
            "buffer" : 0,
            "byteLength" : 2624,
            "byteOffset" : 3074288
        },
        {
            "buffer" : 0,
            "byteLength" : 2460,
            "byteOffset" : 3076912
        },
        {
            "buffer" : 0,
            "byteLength" : 10680,
            "byteOffset" : 3079372
        },
        {
            "buffer" : 0,
            "byteLength" : 10680,
            "byteOffset" : 3090052
        },
        {
            "buffer" : 0,
            "byteLength" : 7120,
            "byteOffset" : 3100732
        },
        {
            "buffer" : 0,
            "byteLength" : 6270,
            "byteOffset" : 3107852
        }
    ],
    "buffers" : [
        {
            "byteLength" : 3114124,
            "uri" : "data:application/octet-stream;base64,"
        }
    ]
}
